<mxfile host="app.diagrams.net" agent="Mozilla/5.0 (Windows NT 10.0; Win64; x64) AppleWebKit/537.36 (KHTML, like Gecko) Chrome/138.0.0.0 Safari/537.36" version="28.0.3">
  <diagram name="PÃ¡gina-1" id="wgFnKGmXYiDy_bBbwDIP">
    <mxGraphModel dx="872" dy="465" grid="1" gridSize="10" guides="1" tooltips="1" connect="1" arrows="1" fold="1" page="1" pageScale="1" pageWidth="827" pageHeight="583" math="0" shadow="0">
      <root>
        <mxCell id="0" />
        <mxCell id="1" parent="0" />
        <mxCell id="wkkNvibYVM9pV9eyAI49-4" style="edgeStyle=orthogonalEdgeStyle;rounded=0;orthogonalLoop=1;jettySize=auto;html=1;exitX=0.5;exitY=1;exitDx=0;exitDy=0;" edge="1" parent="1" source="wkkNvibYVM9pV9eyAI49-1" target="wkkNvibYVM9pV9eyAI49-3">
          <mxGeometry relative="1" as="geometry" />
        </mxCell>
        <mxCell id="wkkNvibYVM9pV9eyAI49-1" value="INICIO" style="rounded=1;whiteSpace=wrap;html=1;" vertex="1" parent="1">
          <mxGeometry x="200" y="20" width="120" height="60" as="geometry" />
        </mxCell>
        <mxCell id="wkkNvibYVM9pV9eyAI49-7" style="edgeStyle=orthogonalEdgeStyle;rounded=0;orthogonalLoop=1;jettySize=auto;html=1;exitX=0.5;exitY=1;exitDx=0;exitDy=0;entryX=0.5;entryY=0;entryDx=0;entryDy=0;" edge="1" parent="1" source="wkkNvibYVM9pV9eyAI49-2" target="wkkNvibYVM9pV9eyAI49-6">
          <mxGeometry relative="1" as="geometry" />
        </mxCell>
        <mxCell id="wkkNvibYVM9pV9eyAI49-11" style="edgeStyle=orthogonalEdgeStyle;rounded=0;orthogonalLoop=1;jettySize=auto;html=1;exitX=1;exitY=0.5;exitDx=0;exitDy=0;entryX=0;entryY=0.5;entryDx=0;entryDy=0;" edge="1" parent="1" source="wkkNvibYVM9pV9eyAI49-2" target="wkkNvibYVM9pV9eyAI49-10">
          <mxGeometry relative="1" as="geometry" />
        </mxCell>
        <mxCell id="wkkNvibYVM9pV9eyAI49-2" value="FINAL DE CARRERA" style="rhombus;whiteSpace=wrap;html=1;" vertex="1" parent="1">
          <mxGeometry x="160" y="220" width="200" height="80" as="geometry" />
        </mxCell>
        <mxCell id="wkkNvibYVM9pV9eyAI49-5" style="edgeStyle=orthogonalEdgeStyle;rounded=0;orthogonalLoop=1;jettySize=auto;html=1;exitX=0.5;exitY=1;exitDx=0;exitDy=0;entryX=0.5;entryY=0;entryDx=0;entryDy=0;" edge="1" parent="1" source="wkkNvibYVM9pV9eyAI49-3" target="wkkNvibYVM9pV9eyAI49-2">
          <mxGeometry relative="1" as="geometry" />
        </mxCell>
        <mxCell id="wkkNvibYVM9pV9eyAI49-3" value="MOVER MOTOR PASO A PASO" style="rounded=0;whiteSpace=wrap;html=1;" vertex="1" parent="1">
          <mxGeometry x="200" y="120" width="120" height="60" as="geometry" />
        </mxCell>
        <mxCell id="wkkNvibYVM9pV9eyAI49-9" style="edgeStyle=orthogonalEdgeStyle;rounded=0;orthogonalLoop=1;jettySize=auto;html=1;exitX=0;exitY=0.5;exitDx=0;exitDy=0;entryX=0;entryY=0.5;entryDx=0;entryDy=0;" edge="1" parent="1" source="wkkNvibYVM9pV9eyAI49-6" target="wkkNvibYVM9pV9eyAI49-3">
          <mxGeometry relative="1" as="geometry">
            <mxPoint x="80" y="140" as="targetPoint" />
            <Array as="points">
              <mxPoint x="100" y="370" />
              <mxPoint x="100" y="150" />
            </Array>
          </mxGeometry>
        </mxCell>
        <mxCell id="wkkNvibYVM9pV9eyAI49-6" value="CAPTURAR IMAGENES" style="rounded=0;whiteSpace=wrap;html=1;" vertex="1" parent="1">
          <mxGeometry x="200" y="340" width="120" height="60" as="geometry" />
        </mxCell>
        <mxCell id="wkkNvibYVM9pV9eyAI49-8" value="NO" style="text;html=1;align=center;verticalAlign=middle;resizable=0;points=[];autosize=1;strokeColor=none;fillColor=none;" vertex="1" parent="1">
          <mxGeometry x="260" y="300" width="40" height="30" as="geometry" />
        </mxCell>
        <mxCell id="wkkNvibYVM9pV9eyAI49-13" style="edgeStyle=orthogonalEdgeStyle;rounded=0;orthogonalLoop=1;jettySize=auto;html=1;exitX=0.5;exitY=1;exitDx=0;exitDy=0;entryX=0.5;entryY=0;entryDx=0;entryDy=0;" edge="1" parent="1" source="wkkNvibYVM9pV9eyAI49-10" target="wkkNvibYVM9pV9eyAI49-12">
          <mxGeometry relative="1" as="geometry" />
        </mxCell>
        <mxCell id="wkkNvibYVM9pV9eyAI49-10" value="REALIZAR INFERENCIA" style="rounded=0;whiteSpace=wrap;html=1;" vertex="1" parent="1">
          <mxGeometry x="414" y="230" width="120" height="60" as="geometry" />
        </mxCell>
        <mxCell id="wkkNvibYVM9pV9eyAI49-12" value="FIN" style="rounded=1;whiteSpace=wrap;html=1;" vertex="1" parent="1">
          <mxGeometry x="414" y="340" width="120" height="60" as="geometry" />
        </mxCell>
      </root>
    </mxGraphModel>
  </diagram>
</mxfile>
